<?xml version="1.0" encoding="utf-8"?>
<!-- Generator: Adobe Illustrator 23.0.1, SVG Export Plug-In . SVG Version: 6.00 Build 0)  -->
<svg version="1.1" id="Layer_1" xmlns="http://www.w3.org/2000/svg" xmlns:xlink="http://www.w3.org/1999/xlink" x="0px" y="0px"
	 viewBox="0 0 36 38.6" style="enable-background:new 0 0 36 38.6;" xml:space="preserve">
<style type="text/css">
	.st0{fill:#FFFFFF;}
</style>
<path class="st0" d="M5.1,30.9h10.3v2.6H5.1V30.9z M18,15.4H5.1V18H18V15.4z M23.1,23.1V18l-7.7,7.7l7.7,7.7v-5.1H36v-5.1H23.1z
	 M11.6,20.6H5.1v2.6h6.4L11.6,20.6L11.6,20.6z M5.1,28.3h6.4v-2.6H5.1V28.3z M28.3,30.9h2.6V36c0,0.7-0.3,1.3-0.8,1.8
	c-0.5,0.5-1.1,0.7-1.8,0.8H2.6C1.2,38.6,0,37.4,0,36V7.7c0-1.4,1.2-2.6,2.6-2.6h7.7c0-2.9,2.3-5.1,5.2-5.1s5.1,2.3,5.1,5.1h7.7
	c1.4,0,2.6,1.2,2.6,2.6v12.9h-2.6v-7.7H2.6V36h25.7L28.3,30.9L28.3,30.9z M5.1,10.3h20.6c0-1.4-1.2-2.6-2.6-2.6h-2.6
	c-1.4,0-2.6-1.2-2.6-2.6s-1.2-2.6-2.6-2.6s-2.6,1.2-2.6,2.6s-1.2,2.6-2.6,2.6H7.8C6.3,7.7,5.1,8.9,5.1,10.3z"/>
</svg>
